<svg xmlns="http://www.w3.org/2000/svg" viewBox="0 0 500 20" height="100%" width="100%">
  <path d="M11.5 40c-5.2 0-8.5-1.5-9.7-2.2C.7 36.6 0 32.5 0 28.6c.4-.7 1.7-.8 2.2-.2 1.1 3.7 5 9 9.8 9 4.2 0 6.2-2.9 6.2-5.8 0-4.6-4.3-7.4-7.8-9.1-4.1-2.1-8.6-5.5-8.6-11.1C1.7 5 6.7.5 15 .5c1.9 0 4.2.2 6.5.9.7.2 1.3.3 1.9.5.5 1.3 1 4.3 1 8.2-.3.7-1.7.7-2.2.2-1-2.9-3.4-7.1-7.5-7.1-3.8 0-5.8 2.5-5.8 5.3 0 2.6 2.3 5 5.2 6.5l3.8 2c3.5 1.9 8 5.2 8 11.5 0 6.9-5.8 11.5-14.4 11.5zM76.2 2c0 1 .2 5.6.7 8.9-.2.7-1.8.9-2.2.4C73.2 6 69.6 3.1 64 3.1c-6.3 0-13.1 5.4-13.1 16.8s6.6 17.5 13.4 17.5c6.9 0 10.1-5 11.6-8.8.5-.5 1.8-.3 2.2.4-.4 4.2-1.4 7.6-2.2 9-3.1.9-7.1 2.1-11.6 2.1-5.6 0-11.3-1.3-15.3-4.3-4.1-3.1-7.2-7.9-7.2-15 0-7 3-11.9 6.9-15.1C52.8 2.3 58.6.6 64.5.6c5.8-.1 10 1.3 11.7 1.4zm57.4 18.1c0 12.4-8.3 19.9-20.6 19.9-11.5 0-19.8-7.5-19.8-19.5 0-11.3 8.4-20 20.4-20 11.9 0 20 8 20 19.6zm-20.4-17c-7 0-10.8 6.6-10.8 16.1 0 7 2.5 18.1 11.8 18.1 7.5 0 10.4-7.3 10.4-16.5-.1-9.7-4.4-17.7-11.4-17.7zm48.7 2.6c0-1.4 0-1.7-1.4-1.7H157c-4.2 0-5.4 2.3-7.1 6.4-.7.3-1.8.2-2.1-.5 1.2-3.9 1.5-7.5 1.9-9.7.2-.2.5-.3.8-.3.3 0 .6.1.8.2.3 1 .5 1.2 4.8 1.2h21.2c3.8 0 4.6-.1 5.1-1.3.2-.1.4-.2.7-.2.3 0 .7.2.9.4-.6 1.9-1 6.6-.9 9.8-.3.5-1.8.6-2.1.2-1-3.7-1.8-6.3-6-6.3h-3.4c-1.4 0-1.5.2-1.5 1.7v25.2c0 5.3.3 5.8 2.9 6.1l2.3.3c.4.3.4 1.7 0 2-3.7-.1-6.6-.2-9.1-.2-2.7 0-5.7.1-9.7.2-.5-.3-.5-1.7 0-2l2.5-.2c2.6-.3 2.9-.8 2.9-6.1V5.7zm50.4 0c0-1.4 0-1.7-1.4-1.7h-3.5c-4.2 0-5.4 2.3-7.1 6.4-.7.3-1.8.2-2.1-.5 1.2-3.9 1.5-7.5 1.9-9.7.2-.2.5-.3.8-.3.3 0 .6.1.8.2.3 1 .5 1.2 4.8 1.2h21.2c3.8 0 4.6-.1 5.1-1.3.2-.1.4-.2.7-.2.3 0 .7.2.9.4-.6 1.9-1 6.6-.9 9.8-.3.5-1.8.6-2.1.2-1-3.7-1.8-6.3-6-6.3H222c-1.4 0-1.5.2-1.5 1.7v25.2c0 5.3.3 5.8 2.9 6.1l2.3.3c.4.3.4 1.7 0 2-3.7-.1-6.6-.2-9.1-.2-2.7 0-5.7.1-9.7.2-.5-.3-.5-1.7 0-2l2.6-.3c2.6-.3 2.9-.8 2.9-6.1V5.7zm56 4.3c0-6-.1-6.9-3.7-7.2l-1.4-.1c-.3-.2-.2-1.3.1-1.4 3.2.1 5.1.2 7.4.2 2.2 0 4.2-.1 7-.2.3.2.5 1.2.1 1.4l-1.4.1c-3.3.3-3.4 1.2-3.4 7.2v19.9c0 3.6.2 5.1 1.2 6.2.6.6 1.7 1.3 6.2 1.3 4.8 0 6-.2 7-.7 1.1-.7 2.6-2.7 3.8-5.6.3-.3 1.4-.1 1.4.3 0 .6-1.6 6.4-2.4 8-2.9-.1-8.3-.2-14.2-.2h-5.2c-2.4 0-4.2.1-7.4.2-.3-.2-.5-1.1-.1-1.4l1.7-.2c3.3-.3 3.4-1.1 3.4-7.1V10zm37.1 10.7C305.4 9.3 314 .6 325.7.6c13.2 0 19.8 9.5 19.8 19.6 0 11.5-8.8 19.9-19.8 19.9-12.6-.1-20.3-9.2-20.3-19.4zm34.4 1.2c0-9.4-4.2-19.6-15.1-19.6-5.9 0-13.6 4.1-13.6 16.5 0 8.4 4.1 19.4 15.3 19.4 6.9 0 13.4-5.1 13.4-16.3zm54.4 11.4c0 2.3.3 3.7 1.4 4.1.2.2.2.5-.1.7-.7 0-1.7.2-2.8.5-3 .8-7.1 1.5-10.2 1.5-6.8 0-13-1.9-17.4-6.3-3.4-3.4-5.3-7.9-5.3-13 0-4.9 1.6-9.8 5.1-13.5 3.8-4 9.5-6.7 18.1-6.7 3.3 0 6.3.6 7.2.9 1.1.2 2.9.6 3.5.5 0 1.9.3 4.9.9 8.3-.2.5-1.2.5-1.5.2-1.6-6.2-5.9-8.1-11.7-8.1-11.1 0-15.9 7.9-15.9 16.4 0 11 5.6 19.6 17.1 19.6 3.5 0 5.6-.7 6.3-1.7.3-.4.6-1.4.6-3.3V31c0-4.8-.2-5.1-3.7-5.5l-2.5-.3c-.5-.2-.4-1.3 0-1.4 1.7.1 4.8.2 8.2.2 2.2 0 4.2-.1 6-.2.4.2.5 1.1.1 1.4l-.9.1c-2.4.3-2.5 1.9-2.5 4.8v3.2zm24.3-23.2c0-6-.1-7-3.5-7.3l-1.4-.1c-.3-.2-.2-1.3.1-1.4 2.9.1 4.8.2 7.2.2 2.3 0 4.2-.1 7.1-.2.3.2.5 1.2.1 1.4l-1.4.1c-3.4.3-3.5 1.3-3.5 7.3v20.3c0 6 .1 6.8 3.5 7.2l1.4.2c.3.2.2 1.3-.1 1.4-2.9-.1-4.8-.2-7.1-.2-2.4 0-4.3.1-7.2.2-.3-.2-.5-1.1-.1-1.4l1.4-.2c3.4-.4 3.5-1.2 3.5-7.2V10.1zm31.3-4.7C454 2.1 459.3.5 465.2.5c3.1 0 7.4.6 10.1 1.4.7.2 1.1.3 1.6.2.1 1.3.3 4.9.8 8.4-.3.4-1.1.5-1.5.1-.9-3.9-3.4-8.3-11.7-8.3-8.7 0-16.1 5.5-16.1 17.3 0 12 7.6 18.6 16.9 18.6 7.4 0 10.6-4.8 11.9-8.2.4-.3 1.3-.2 1.5.2-.4 3-1.9 6.7-2.7 7.8-.7.1-1.4.3-2 .6-1.3.5-5.4 1.3-9 1.3-5.1 0-10-1-14.2-3.8-4.6-3.1-8.1-8.3-8.1-15.7 0-6.2 2.8-11.7 7.1-15z" fill="#252525"/>
</svg>
